<svg xmlns="http://www.w3.org/2000/svg" width="32" height="19"><defs><filter id="a" width="38" height="39" x="-10" y="-10" filterUnits="userSpaceOnUse"><feOffset dy="1" in="SourceGraphic" result="FeOffset1162Out"/><feGaussianBlur in="FeOffset1162Out" result="FeGaussianBlur1163Out" stdDeviation="0 0"/></filter><filter id="e" width="200%" height="200%" x="-50%" y="-50%"><feGaussianBlur in="SourceGraphic" result="FeGaussianBlur1193Out" stdDeviation="6.5 6.5"/></filter><filter id="h" width="200%" height="200%" x="-50%" y="-50%"><feGaussianBlur in="SourceGraphic" result="FeGaussianBlur1200Out" stdDeviation="0 0"/></filter><filter id="j" width="200%" height="200%" x="-50%" y="-50%"><feGaussianBlur in="SourceGraphic" result="FeGaussianBlur1227Out" stdDeviation="6.5 6.5"/></filter><filter id="m" width="200%" height="200%" x="-50%" y="-50%"><feGaussianBlur in="SourceGraphic" result="FeGaussianBlur1234Out" stdDeviation="0 0"/></filter><filter id="o" width="200%" height="200%" x="-50%" y="-50%"><feGaussianBlur in="SourceGraphic" result="FeGaussianBlur1261Out" stdDeviation="6.5 6.5"/></filter><filter id="r" width="200%" height="200%" x="-50%" y="-50%"><feGaussianBlur in="SourceGraphic" result="FeGaussianBlur1268Out" stdDeviation="0 0"/></filter><mask id="b" width="2" height="2" x="-1" y="-1"><path fill="#fff" d="M0 0h18v18H0z"/><path d="M9 0c4.97 0 9 3.938 9 8.796 0 4.859-4.03 8.797-9 8.797s-9-3.938-9-8.797C0 3.938 4.03 0 9 0z"/></mask><mask id="f"><path fill="#fff" d="M11.669 4.495c.127.506.14.549.128 1.068-.005.201-.121 1.128-.09 1.412.026.234.086.253.18.446.163.336.108.8.046 1.14-.035.184-.107.448-.217.6-.122.167-.365.168-.472.363-.155.28-.067.673-.165.976-.11.343-.393.367-.414.817l.414.058c.138.29.392.874.651 1.05l.65.175c.761.307 1.606.675 2.368.992.694.289 1.525.391 1.776 1.109 0 .487.046 1.637.033 2.275 0 0 .003 2.024-7.557 2.024-7.56 0-7.557-2.024-7.557-2.024-.013-.638.034-1.788.034-2.275.25-.718 1.081-.82 1.775-1.109.762-.317 1.607-.685 2.367-.992l.65-.175c.26-.176.514-.76.652-1.05l.308-.074c-.07-.383-.31-.413-.41-.684l-.12-1.226c.003.02-.282-.05-.32-.074-.402-.248-.41-1.257-.449-1.676-.017-.191.253-.349.178-.7-.44-2.058.19-3.021 1.188-3.34.693-.277 1.985-.79 3.191-.058l.3.273.484.082c.243.138.398.597.398.597z"/></mask><mask id="i"><path fill="#fff" d="M11.669 4.495c.127.506.14.549.128 1.068-.005.201-.121 1.128-.09 1.412.026.234.086.253.18.446.163.336.108.8.046 1.14-.035.184-.107.448-.217.6-.122.167-.365.168-.472.363-.155.28-.067.673-.165.976-.11.343-.393.367-.414.817l.414.058c.138.29.392.874.651 1.05l.65.175c.761.307 1.606.675 2.368.992.694.289 1.525.391 1.776 1.109 0 .487.046 1.637.033 2.275 0 0 .003 2.024-7.557 2.024-7.56 0-7.557-2.024-7.557-2.024-.013-.638.034-1.788.034-2.275.25-.718 1.081-.82 1.775-1.109.762-.317 1.607-.685 2.367-.992l.65-.175c.26-.176.514-.76.652-1.05l.308-.074c-.07-.383-.31-.413-.41-.684l-.12-1.226c.003.02-.282-.05-.32-.074-.402-.248-.41-1.257-.449-1.676-.017-.191.253-.349.178-.7-.44-2.058.19-3.021 1.188-3.34.693-.277 1.985-.79 3.191-.058l.3.273.484.082c.243.138.398.597.398.597z"/></mask><mask id="k"><path fill="#fff" d="M25.136 8.006L23.99 6.892 28 2.99l1.146 1.115 2.864 2.787-1.146 1.114L28 5.22z"/></mask><mask id="n"><path fill="#fff" d="M25.136 8.006L23.99 6.892 28 2.99l1.146 1.115 2.864 2.787-1.146 1.114L28 5.22z"/></mask><mask id="p"><path fill="#fff" d="M28 16.01l-4.01-3.902 1.146-1.114L28 13.78l2.864-2.786 1.146 1.114-3.437 3.345z"/></mask><mask id="s"><path fill="#fff" d="M28 16.01l-4.01-3.902 1.146-1.114L28 13.78l2.864-2.786 1.146 1.114-3.437 3.345z"/></mask><linearGradient id="g" x1="8.56" x2="9.44" y1="19" y2="3.17" gradientUnits="userSpaceOnUse"><stop offset="0" stop-opacity=".96"/><stop offset=".5" stop-color="#d0d0d0" stop-opacity=".96"/><stop offset="1" stop-color="#9e9e9e" stop-opacity=".96"/></linearGradient><linearGradient id="l" x1="28.01" x2="27.99" y1="8.01" y2="2.99" gradientUnits="userSpaceOnUse"><stop offset="0" stop-opacity=".96"/><stop offset=".5" stop-color="#d0d0d0" stop-opacity=".96"/><stop offset="1" stop-color="#9e9e9e" stop-opacity=".96"/></linearGradient><linearGradient id="q" x1="28.01" x2="27.99" y1="16.01" y2="10.99" gradientUnits="userSpaceOnUse"><stop offset="0" stop-opacity=".96"/><stop offset=".5" stop-color="#d0d0d0" stop-opacity=".96"/><stop offset="1" stop-color="#9e9e9e" stop-opacity=".96"/></linearGradient><clipPath id="c"><path fill="#fff" d="M9 0c4.97 0 9 3.938 9 8.796 0 4.859-4.03 8.797-9 8.797s-9-3.938-9-8.797C0 3.938 4.03 0 9 0z"/></clipPath><clipPath id="d"><path d="M9 0c4.97 0 9 3.938 9 8.796 0 4.859-4.03 8.797-9 8.797s-9-3.938-9-8.797C0 3.938 4.03 0 9 0z"/></clipPath></defs><g filter="url(#a)"><path fill="none" d="M9 0c4.97 0 9 3.938 9 8.796 0 4.859-4.03 8.797-9 8.797s-9-3.938-9-8.797C0 3.938 4.03 0 9 0z" mask="url(&quot;#b&quot;)"/><path fill="#80633b" d="M9 0c4.97 0 9 3.938 9 8.796 0 4.859-4.03 8.797-9 8.797s-9-3.938-9-8.797C0 3.938 4.03 0 9 0z"/></g><path fill="#1c242a" d="M9 0c4.97 0 9 3.938 9 8.796 0 4.859-4.03 8.797-9 8.797s-9-3.938-9-8.797C0 3.938 4.03 0 9 0z"/><path fill="none" stroke="#000" stroke-linecap="round" stroke-linejoin="round" stroke-miterlimit="20" stroke-width="4" d="M9 0c4.97 0 9 3.938 9 8.796 0 4.859-4.03 8.797-9 8.797s-9-3.938-9-8.797C0 3.938 4.03 0 9 0z" clip-path="url(&quot;#c&quot;)"/><g clip-path="url(#d)"><path fill="#fff" fill-opacity=".24" d="M-12 32v-42h42v42zM11.669 4.495s-.155-.459-.398-.597l-.485-.082-.299-.273c-1.206-.732-2.498-.219-3.19.058-.999.319-1.63 1.282-1.19 3.34.076.351-.194.509-.177.7.039.42.047 1.428.45 1.676.037.023.322.093.32.074l.118 1.226c.1.271.341.3.411.684l-.308.074c-.138.29-.392.874-.651 1.05l-.651.175c-.76.307-1.605.675-2.367.992-.694.289-1.525.391-1.775 1.109 0 .487-.047 1.637-.034 2.275C1.443 16.976 1.44 19 9 19c7.56 0 7.557-2.024 7.557-2.024.013-.638-.033-1.788-.033-2.275-.251-.718-1.082-.82-1.776-1.109-.762-.317-1.607-.685-2.367-.992a458.08 458.08 0 00-.65-.175c-.26-.176-.514-.76-.652-1.05l-.414-.058c.02-.45.303-.474.414-.817.098-.303.01-.696.165-.976.107-.195.35-.196.472-.363.11-.152.182-.416.217-.6.062-.34.117-.804-.047-1.14-.093-.193-.153-.212-.179-.446-.031-.284.085-1.211.09-1.412.012-.52 0-.562-.128-1.068z" filter="url(#e)" mask="url(&quot;#f&quot;)"/><path fill="#bb9c66" d="M11.669 4.495c.127.506.14.549.128 1.068-.005.201-.121 1.128-.09 1.412.026.234.086.253.18.446.163.336.108.8.046 1.14-.035.184-.107.448-.217.6-.122.167-.365.168-.472.363-.155.28-.067.673-.165.976-.11.343-.393.367-.414.817l.414.058c.138.29.392.874.651 1.05l.65.175c.761.307 1.606.675 2.368.992.694.289 1.525.391 1.776 1.109 0 .487.046 1.637.033 2.275 0 0 .003 2.024-7.557 2.024-7.56 0-7.557-2.024-7.557-2.024-.013-.638.034-1.788.034-2.275.25-.718 1.081-.82 1.775-1.109.762-.317 1.607-.685 2.367-.992l.65-.175c.26-.176.514-.76.652-1.05l.308-.074c-.07-.383-.31-.413-.41-.684l-.12-1.226c.003.02-.282-.05-.32-.074-.402-.248-.41-1.257-.449-1.676-.017-.191.253-.349.178-.7-.44-2.058.19-3.021 1.188-3.34.693-.277 1.985-.79 3.191-.058l.3.273.484.082c.243.138.398.597.398.597z"/><path fill="url(#g)" d="M11.669 4.495c.127.506.14.549.128 1.068-.005.201-.121 1.128-.09 1.412.026.234.086.253.18.446.163.336.108.8.046 1.14-.035.184-.107.448-.217.6-.122.167-.365.168-.472.363-.155.28-.067.673-.165.976-.11.343-.393.367-.414.817l.414.058c.138.29.392.874.651 1.05l.65.175c.761.307 1.606.675 2.368.992.694.289 1.525.391 1.776 1.109 0 .487.046 1.637.033 2.275 0 0 .003 2.024-7.557 2.024-7.56 0-7.557-2.024-7.557-2.024-.013-.638.034-1.788.034-2.275.25-.718 1.081-.82 1.775-1.109.762-.317 1.607-.685 2.367-.992l.65-.175c.26-.176.514-.76.652-1.05l.308-.074c-.07-.383-.31-.413-.41-.684l-.12-1.226c.003.02-.282-.05-.32-.074-.402-.248-.41-1.257-.449-1.676-.017-.191.253-.349.178-.7-.44-2.058.19-3.021 1.188-3.34.693-.277 1.985-.79 3.191-.058l.3.273.484.082c.243.138.398.597.398.597z"/><path fill="#fff" fill-opacity=".24" d="M-12 32v-42h42v42zM11.669 4.495s-.155-.459-.398-.597l-.485-.082-.299-.273c-1.206-.732-2.498-.219-3.19.058-.999.319-1.63 1.282-1.19 3.34.076.351-.194.509-.177.7.039.42.047 1.428.45 1.676.037.023.322.093.32.074l.118 1.226c.1.271.341.3.411.684l-.308.074c-.138.29-.392.874-.651 1.05l-.651.175c-.76.307-1.605.675-2.367.992-.694.289-1.525.391-1.775 1.109 0 .487-.047 1.637-.034 2.275C1.443 16.976 1.44 19 9 19c7.56 0 7.557-2.024 7.557-2.024.013-.638-.033-1.788-.033-2.275-.251-.718-1.082-.82-1.776-1.109-.762-.317-1.607-.685-2.367-.992a458.08 458.08 0 00-.65-.175c-.26-.176-.514-.76-.652-1.05l-.414-.058c.02-.45.303-.474.414-.817.098-.303.01-.696.165-.976.107-.195.35-.196.472-.363.11-.152.182-.416.217-.6.062-.34.117-.804-.047-1.14-.093-.193-.153-.212-.179-.446-.031-.284.085-1.211.09-1.412.012-.52 0-.562-.128-1.068z" filter="url(#e)" mask="url(&quot;#f&quot;)"/><path fill="#fff1d8" fill-opacity=".44" d="M1 20V2h16v18zM11.669 5.495s-.155-.459-.398-.597l-.485-.082-.299-.273c-1.206-.732-2.498-.219-3.19.058-.999.319-1.63 1.282-1.19 3.34.076.351-.194.509-.177.7.039.42.047 1.428.45 1.676.037.023.322.093.32.074l.118 1.226c.1.271.341.3.411.684l-.308.074c-.138.29-.392.874-.651 1.05l-.651.175c-.76.307-1.605.675-2.367.992-.694.289-1.525.391-1.775 1.109 0 .487-.047 1.637-.034 2.275C1.443 17.976 1.44 20 9 20c7.56 0 7.557-2.024 7.557-2.024.013-.638-.033-1.788-.033-2.275-.251-.718-1.082-.82-1.776-1.109-.762-.317-1.607-.685-2.367-.992a458.08 458.08 0 00-.65-.175c-.26-.176-.514-.76-.652-1.05l-.414-.058c.02-.45.303-.474.414-.817.098-.303.01-.696.165-.976.107-.195.35-.196.472-.363.11-.152.182-.416.217-.6.062-.34.117-.804-.047-1.14-.093-.193-.153-.212-.179-.446-.031-.284.085-1.211.09-1.412.012-.52 0-.562-.128-1.068z" filter="url(#h)" mask="url(&quot;#i&quot;)"/></g><path fill="#fff" fill-opacity=".24" d="M11 21v-31h34v31zM28 5.22l2.864 2.786 1.146-1.114-2.864-2.787L28 2.991l-4.01 3.9 1.146 1.115z" filter="url(#j)" mask="url(&quot;#k&quot;)"/><path fill="#bb9c66" d="M25.136 8.006L23.99 6.892 28 2.99l1.146 1.115 2.864 2.787-1.146 1.114L28 5.22z"/><path fill="url(#l)" d="M25.136 8.006L23.99 6.892 28 2.99l1.146 1.115 2.864 2.787-1.146 1.114L28 5.22z"/><path fill="#fff" fill-opacity=".24" d="M11 21v-31h34v31zM28 5.22l2.864 2.786 1.146-1.114-2.864-2.787L28 2.991l-4.01 3.9 1.146 1.115z" filter="url(#j)" mask="url(&quot;#k&quot;)"/><path fill="#fff1d8" fill-opacity=".44" d="M24 9V7.901L25.13 9zm0-7h8v5.882l-2.854-2.777L28 3.99l-4 3.892zm8 7h-1.13L32 7.902zm-4-2.78L30.858 9h-5.716zm2.864 2.786L30.871 9h-.013zm1.146-1.114l-.01-.01v.02zm-8.02 0l.01.01v-.02zm1.146 1.114L25.142 9h-.013z" filter="url(#m)" mask="url(&quot;#n&quot;)"/><path fill="#fff" fill-opacity=".24" d="M11 29V-2h34v31zm17.573-13.548l3.437-3.344-1.146-1.114L28 13.78l-2.864-2.786-1.146 1.114L28 16.01z" filter="url(#o)" mask="url(&quot;#p&quot;)"/><path fill="#bb9c66" d="M28 16.01l-4.01-3.902 1.146-1.114L28 13.78l2.864-2.786 1.146 1.114-3.437 3.345z"/><path fill="url(#q)" d="M28 16.01l-4.01-3.902 1.146-1.114L28 13.78l2.864-2.786 1.146 1.114-3.437 3.345z"/><path fill="#fff" fill-opacity=".24" d="M11 29V-2h34v31zm17.573-13.548l3.437-3.344-1.146-1.114L28 13.78l-2.864-2.786-1.146 1.114L28 16.01z" filter="url(#o)" mask="url(&quot;#p&quot;)"/><path fill="#fff1d8" fill-opacity=".44" d="M24 17v-3.882L27.99 17zm0-7h8v3.099l-1.136-1.105L28 14.78l-2.864-2.786L24 13.099zm8 7h-3.99l.563-.548L32 13.119zm.01-3.892l-.01-.01v.02zm-8.02 0l.01.01v-.02zM28 17.01l.01-.01h-.02z" filter="url(#r)" mask="url(&quot;#s&quot;)"/></svg>